<svg version="1.1" id="Layer_1" xmlns="http://www.w3.org/2000/svg" xmlns:xlink="http://www.w3.org/1999/xlink" x="0px" y="0px"
	 width="100%" viewBox="0 0 160 160" enable-background="new 0 0 160 160" xml:space="preserve">
<path fill="#FEFDFE" opacity="1.000000" stroke="none" 
	d="
M96.000000,161.000000 
	C64.000000,161.000000 32.500008,161.000000 1.000009,161.000000 
	C1.000006,107.666679 1.000006,54.333355 1.000003,1.000023 
	C54.333317,1.000015 107.666634,1.000015 160.999969,1.000008 
	C160.999969,54.333313 160.999969,107.666626 160.999985,160.999969 
	C139.500000,161.000000 118.000000,161.000000 96.000000,161.000000 
M52.329578,144.254044 
	C80.117630,155.390945 115.767136,151.104935 138.260956,121.464149 
	C157.381653,96.268211 155.179169,57.714787 133.045120,34.329498 
	C114.256866,14.479138 90.878197,9.132075 64.995117,14.030806 
	C29.985073,20.656944 4.785297,54.884048 11.511381,92.881897 
	C15.751910,116.838043 29.621170,133.737991 52.329578,144.254044 
z"/>
<path fill="#9E025D" opacity="1.000000" stroke="none" 
	d="
M51.962151,144.150421 
	C29.621170,133.737991 15.751910,116.838043 11.511381,92.881897 
	C4.785297,54.884048 29.985073,20.656944 64.995117,14.030806 
	C90.878197,9.132075 114.256866,14.479138 133.045120,34.329498 
	C155.179169,57.714787 157.381653,96.268211 138.260956,121.464149 
	C115.767136,151.104935 80.117630,155.390945 51.962151,144.150421 
M82.407349,44.816105 
	C77.376251,48.814182 71.589981,52.163219 67.476196,56.949692 
	C59.668186,66.034470 61.106514,75.400139 70.456589,82.909081 
	C75.379715,86.862785 80.640427,90.418182 85.356880,94.595795 
	C87.121094,96.158463 89.125877,99.402206 88.587814,101.115181 
	C87.921280,103.237114 84.864975,104.801880 82.570381,106.144913 
	C81.235863,106.926010 79.375969,107.011932 77.744064,107.049988 
	C66.348312,107.315742 55.940342,105.346542 50.059887,93.957108 
	C43.045528,99.716370 43.131104,108.147369 50.158867,112.942429 
	C56.686020,117.395912 64.000267,118.047150 71.654793,117.007530 
	C82.174431,115.578789 92.213257,112.789070 100.462975,105.817108 
	C108.513412,99.013565 108.161171,91.323570 99.719437,85.073326 
	C95.724754,82.115669 91.417061,79.566483 87.165222,76.973167 
	C75.326485,69.752357 75.007164,66.200752 85.846794,57.020885 
	C88.559120,54.723862 91.801300,53.052475 94.799965,51.093548 
	C95.173332,51.577106 95.546700,52.060665 95.920067,52.544220 
	C93.724464,56.034019 91.588829,59.563560 89.311707,62.999336 
	C87.848663,65.206810 87.840057,66.910301 90.309547,68.367958 
	C91.879021,69.294365 93.333603,70.421425 94.807480,71.502457 
	C97.609520,73.557632 100.118118,73.345673 101.967300,70.328300 
	C104.731926,65.817162 107.396675,61.240685 109.965981,56.615379 
	C111.859779,53.206120 110.841476,50.322937 108.155876,47.663277 
	C100.578117,40.158688 92.151199,39.876678 82.407349,44.816105 
z"/>
<path fill="#FBF9FB" opacity="1.000000" stroke="none" 
	d="
M82.734756,44.624344 
	C92.151199,39.876678 100.578117,40.158688 108.155876,47.663277 
	C110.841476,50.322937 111.859779,53.206120 109.965981,56.615379 
	C107.396675,61.240685 104.731926,65.817162 101.967300,70.328300 
	C100.118118,73.345673 97.609520,73.557632 94.807480,71.502457 
	C93.333603,70.421425 91.879021,69.294365 90.309547,68.367958 
	C87.840057,66.910301 87.848663,65.206810 89.311707,62.999336 
	C91.588829,59.563560 93.724464,56.034019 95.920067,52.544220 
	C95.546700,52.060665 95.173332,51.577106 94.799965,51.093548 
	C91.801300,53.052475 88.559120,54.723862 85.846794,57.020885 
	C75.007164,66.200752 75.326485,69.752357 87.165222,76.973167 
	C91.417061,79.566483 95.724754,82.115669 99.719437,85.073326 
	C108.161171,91.323570 108.513412,99.013565 100.462975,105.817108 
	C92.213257,112.789070 82.174431,115.578789 71.654793,117.007530 
	C64.000267,118.047150 56.686020,117.395912 50.158867,112.942429 
	C43.131104,108.147369 43.045528,99.716370 50.059887,93.957108 
	C55.940342,105.346542 66.348312,107.315742 77.744064,107.049988 
	C79.375969,107.011932 81.235863,106.926010 82.570381,106.144913 
	C84.864975,104.801880 87.921280,103.237114 88.587814,101.115181 
	C89.125877,99.402206 87.121094,96.158463 85.356880,94.595795 
	C80.640427,90.418182 75.379715,86.862785 70.456589,82.909081 
	C61.106514,75.400139 59.668186,66.034470 67.476196,56.949692 
	C71.589981,52.163219 77.376251,48.814182 82.734756,44.624344 
z"/>
</svg>